HIERARCHY
ROOT joint_Root
{
	OFFSET 0.0 0.0 0.0
	CHANNELS 6 Xposition Yposition Zposition Zrotation Xrotation Yrotation 
	JOINT Hips
	{
		OFFSET 4.5925 91.4895 -427.239
		CHANNELS 6 Xposition Yposition Zposition Zrotation Xrotation Yrotation 
		JOINT Spine
		{
			OFFSET 15.7357 0.0 0.0
			CHANNELS 6 Xposition Yposition Zposition Zrotation Xrotation Yrotation 
			JOINT Chest
			{
				OFFSET 8.98455 -0.406207 0.0
				CHANNELS 6 Xposition Yposition Zposition Zrotation Xrotation Yrotation 
				JOINT Neck
				{
					OFFSET 16.3773 0.0 0.0
					CHANNELS 6 Xposition Yposition Zposition Zrotation Xrotation Yrotation 
					JOINT Head
					{
						OFFSET 6.45672 0.0 0.0
						CHANNELS 6 Xposition Yposition Zposition Zrotation Xrotation Yrotation 
						End Site
						{
							OFFSET 0.0 0.0 0.0
						}
					}
				}
				JOINT Shoulder_L
				{
					OFFSET 12.9942 -0.242716 4.98039
					CHANNELS 6 Xposition Yposition Zposition Zrotation Xrotation Yrotation 
					JOINT UpperArm_L
					{
						OFFSET 5.34809 0.0 0.0
						CHANNELS 6 Xposition Yposition Zposition Zrotation Xrotation Yrotation 
						JOINT LowerArm_L
						{
							OFFSET 24.3286 1.87007e-05 0.0
							CHANNELS 6 Xposition Yposition Zposition Zrotation Xrotation Yrotation 
							JOINT Hand_L
							{
								OFFSET 22.2916 0.0 0.0
								CHANNELS 6 Xposition Yposition Zposition Zrotation Xrotation Yrotation 
								End Site
								{
									OFFSET 0.0 0.0 0.0
								}
							}
						}
					}
				}
				JOINT Shoulder_R
				{
					OFFSET 12.9945 -0.242716 -4.98039
					CHANNELS 6 Xposition Yposition Zposition Zrotation Xrotation Yrotation 
					JOINT UpperArm_R
					{
						OFFSET -5.34813 0.0 0.0
						CHANNELS 6 Xposition Yposition Zposition Zrotation Xrotation Yrotation 
						JOINT LowerArm_R
						{
							OFFSET -24.3289 0.000322201 0.0
							CHANNELS 6 Xposition Yposition Zposition Zrotation Xrotation Yrotation 
							JOINT Hand_R
							{
								OFFSET -22.2915 -0.000108084 0.0
								CHANNELS 6 Xposition Yposition Zposition Zrotation Xrotation Yrotation 
								End Site
								{
									OFFSET 0.0 0.0 0.0
								}
							}
						}
					}
				}
			}
		}
		JOINT UpperLeg_L
		{
			OFFSET -2.19248 -6.46944 0.0
			CHANNELS 6 Xposition Yposition Zposition Zrotation Xrotation Yrotation 
			JOINT LowerLeg_L
			{
				OFFSET 39.0811 0.0 -1.23785e-05
				CHANNELS 6 Xposition Yposition Zposition Zrotation Xrotation Yrotation 
				JOINT Foot_L
				{
					OFFSET 40.9854 0.0 -1.26872e-05
					CHANNELS 6 Xposition Yposition Zposition Zrotation Xrotation Yrotation 
					JOINT Toes_L
					{
						OFFSET 11.7543 0.0 0.0
						CHANNELS 6 Xposition Yposition Zposition Zrotation Xrotation Yrotation 
						End Site
						{
							OFFSET 0.0 0.0 0.0
						}
					}
				}
			}
		}
		JOINT UpperLeg_R
		{
			OFFSET -2.19251 6.46944 0.0
			CHANNELS 6 Xposition Yposition Zposition Zrotation Xrotation Yrotation 
			JOINT LowerLeg_R
			{
				OFFSET -39.0811 -0.00228153 -0.0401928
				CHANNELS 6 Xposition Yposition Zposition Zrotation Xrotation Yrotation 
				JOINT Foot_R
				{
					OFFSET -40.9854 0.0 0.0
					CHANNELS 6 Xposition Yposition Zposition Zrotation Xrotation Yrotation 
					JOINT Toes_R
					{
						OFFSET -11.7543 0.0 0.0
						CHANNELS 6 Xposition Yposition Zposition Zrotation Xrotation Yrotation 
						End Site
						{
							OFFSET 0.0 0.0 0.0
						}
					}
				}
			}
		}
	}
}
MOTION
Frames:	4
Frame Time:	0.0333333
0.000000 0.000000 0.000000 0.000000 0.000000 -0.000000 -11.592000 89.110700 -0.989870 84.211300 -7.425930 10.308300 15.735700 0.000005 -0.000001 76.324100 82.713100 -71.988200 8.984550 -0.406207 -0.000000 6.550630 -3.480710 8.863900 16.377300 -0.000001 -0.000001 3.156150 -5.536400 5.796050 6.456720 -0.000001 -0.000000 -1.728160 -4.302600 3.632470 12.994200 -0.242716 4.980390 -90.494700 2.145400 -77.012000 5.348090 -0.000007 -0.000001 -66.155900 42.184800 -18.820300 24.328600 0.000019 0.000005 8.782240 22.534800 -21.954900 22.291600 -0.000001 0.000005 5.692620 5.275350 0.752707 12.994500 -0.242716 -4.980390 88.517600 10.465500 -81.891500 -5.348130 -0.000001 -0.000004 -60.154400 27.778400 -9.095420 -24.328900 0.000322 -0.000009 0.448776 1.483290 -16.872700 -22.291500 -0.000108 -0.000004 13.950200 5.372350 -2.059430 -2.192480 -6.469440 -0.000000 -162.194000 -6.957180 -1.741320 39.081100 -0.000007 -0.000012 -0.394344 0.531924 36.552400 40.985400 -0.000006 -0.000013 -10.143900 -0.492949 -72.391300 11.754300 -0.000000 0.000003 -0.000042 -0.000490 -16.596600 -2.192510 6.469440 -0.000001 -173.157000 23.257700 -178.416000 -39.081100 -0.002282 -0.040193 -0.111156 0.183767 31.915500 -40.985400 0.000008 0.000006 12.275900 12.455400 -74.841100 -11.754300 -0.000006 -0.000006 -0.002336 -0.032841 -17.908600
0.000000 0.000000 0.000000 0.000000 0.000000 -0.000000 -11.558800 89.107300 -1.026270 84.147500 -7.414820 10.332000 15.735700 0.000005 -0.000001 76.384300 82.643700 -72.034300 8.984550 -0.406207 -0.000000 6.690450 -3.492930 8.897060 16.377300 -0.000001 -0.000001 3.187980 -6.233350 6.140440 6.456720 -0.000001 -0.000000 -1.503890 -5.300970 4.183880 12.994200 -0.242716 4.980390 -90.586200 2.473910 -76.664900 5.348090 -0.000007 -0.000001 -64.373200 41.184900 -19.815600 24.328600 0.000019 0.000005 9.336180 23.439300 -22.455400 22.291600 -0.000001 0.000005 4.845980 5.286720 0.440628 12.994500 -0.242716 -4.980390 88.492400 10.512800 -81.791700 -5.348130 -0.000001 -0.000004 -60.216000 27.669600 -9.254370 -24.328900 0.000322 -0.000009 0.440916 1.443230 -17.028500 -22.291500 -0.000108 -0.000004 13.949000 5.374050 -2.112430 -2.192480 -6.469440 -0.000000 -162.163000 -6.902470 -1.793750 39.081100 -0.000007 -0.000012 -0.392208 0.527389 36.638300 40.985400 -0.000006 -0.000013 -10.134500 -0.530920 -72.410200 11.754300 -0.000000 0.000003 -0.000051 -0.000573 -16.599800 -2.192510 6.469440 -0.000001 -173.100000 23.239600 -178.434000 -39.081100 -0.002282 -0.040193 -0.111359 0.183963 31.933800 -40.985400 0.000008 0.000006 12.248800 12.417200 -74.803800 -11.754300 -0.000006 -0.000006 -0.002209 -0.031305 -17.846100
0.000000 0.000000 0.000000 0.000000 0.000000 -0.000000 -11.551600 89.095000 -1.083950 84.080500 -7.306210 10.410700 15.735700 0.000005 -0.000001 76.598900 82.541500 -72.249300 8.984550 -0.406207 -0.000000 6.901750 -3.478140 8.902000 16.377300 -0.000001 -0.000001 3.369550 -6.975260 6.476430 6.456720 -0.000001 -0.000000 -1.281600 -6.399140 4.981330 12.994200 -0.242716 4.980390 -90.720300 2.954920 -76.294400 5.348090 -0.000007 -0.000001 -60.865400 40.156500 -22.110200 24.328600 0.000019 0.000005 10.461500 24.843800 -23.723700 22.291600 -0.000001 0.000005 4.411700 5.303820 -0.035083 12.994500 -0.242716 -4.980390 88.447100 10.645400 -81.651000 -5.348130 -0.000001 -0.000004 -60.258500 27.542600 -9.346750 -24.328900 0.000322 -0.000009 0.422017 1.357040 -17.317600 -22.291500 -0.000108 -0.000004 14.031400 5.374990 -2.141700 -2.192480 -6.469440 -0.000000 -162.096000 -6.821690 -1.852960 39.081100 -0.000007 -0.000012 -0.391779 0.524628 36.752300 40.985400 -0.000006 -0.000013 -10.103500 -0.446993 -72.405700 11.754300 -0.000000 0.000003 -0.000044 -0.000511 -16.597400 -2.192510 6.469440 -0.000001 -173.050000 23.273600 -178.415000 -39.081100 -0.002282 -0.040193 -0.111696 0.184197 31.976400 -40.985400 0.000008 0.000006 12.227600 12.341500 -74.781500 -11.754300 -0.000006 -0.000006 -0.002515 -0.034993 -17.996100
0.000000 0.000000 0.000000 0.000000 0.000000 -0.000000 -11.570200 89.070100 -1.175890 83.958300 -7.010520 10.530600 15.735700 0.000005 -0.000001 76.754600 82.423400 -72.410800 8.984550 -0.406207 -0.000000 7.141470 -3.482990 8.898310 16.377300 -0.000001 -0.000001 3.666340 -7.736840 6.720140 6.456720 -0.000001 -0.000000 -0.802576 -7.642700 6.184080 12.994200 -0.242716 4.980390 -90.804800 3.187120 -75.819800 5.348090 -0.000007 -0.000001 -56.414500 38.401000 -25.606800 24.328600 0.000019 0.000005 11.770400 26.104700 -25.339900 22.291600 -0.000001 0.000005 4.836650 5.312460 -0.279353 12.994500 -0.242716 -4.980390 88.394400 10.811000 -81.500700 -5.348130 -0.000001 -0.000004 -60.303400 27.494100 -9.382480 -24.328900 0.000322 -0.000009 0.370934 1.173490 -17.589500 -22.291500 -0.000108 -0.000004 13.914000 5.376850 -2.199380 -2.192480 -6.469440 -0.000000 -161.947000 -6.678460 -1.996450 39.081100 -0.000007 -0.000012 -0.394115 0.524062 36.945500 40.985400 -0.000006 -0.000013 -10.050900 -0.232723 -72.377500 11.754300 -0.000000 0.000003 -0.000041 -0.000478 -16.596200 -2.192510 6.469440 -0.000001 -172.946000 23.511200 -178.398000 -39.081100 -0.002282 -0.040193 -0.109123 0.179710 32.028700 -40.985400 0.000008 0.000006 12.232100 12.233500 -74.753900 -11.754300 -0.000006 -0.000006 -0.002272 -0.032076 -17.877400
